<svg width="114" height="120" viewBox="0 0 114 120" fill="none" xmlns="http://www.w3.org/2000/svg">
<circle cx="57.5" cy="40.5" r="30.5" fill="white"/>
<circle cx="27" cy="27" r="27" fill="#FECD2E"/>
<circle cx="91" cy="58" r="23" fill="white"/>
<circle cx="29.5" cy="62.5" r="18.5" fill="white"/>
<rect x="30" y="62" width="63" height="19" fill="white"/>
<path fill-rule="evenodd" clip-rule="evenodd" d="M33 92.5C33 90.5 35 88 36 87C37 88 39 90.5 39 92.5H38.9585C38.9858 92.6626 39 92.8296 39 93C39 94.6569 37.6569 96 36 96C34.3431 96 33 94.6569 33 93C33 92.8296 33.0142 92.6626 33.0415 92.5H33Z" fill="#2F9AE2"/>
<path fill-rule="evenodd" clip-rule="evenodd" d="M51 92.5C51 90.5 53 88 54 87C55 88 57 90.5 57 92.5H56.9585C56.9858 92.6626 57 92.8296 57 93C57 94.6569 55.6569 96 54 96C52.3431 96 51 94.6569 51 93C51 92.8296 51.0142 92.6626 51.0415 92.5H51Z" fill="#2F9AE2"/>
<path fill-rule="evenodd" clip-rule="evenodd" d="M69 92.5C69 90.5 71 88 72 87C73 88 75 90.5 75 92.5H74.9585C74.9858 92.6626 75 92.8296 75 93C75 94.6569 73.6569 96 72 96C70.3431 96 69 94.6569 69 93C69 92.8296 69.0142 92.6626 69.0415 92.5H69Z" fill="#2F9AE2"/>
<path fill-rule="evenodd" clip-rule="evenodd" d="M87 92.5C87 90.5 89 88 90 87C91 88 93 90.5 93 92.5H92.9585C92.9858 92.6626 93 92.8296 93 93C93 94.6569 91.6569 96 90 96C88.3431 96 87 94.6569 87 93C87 92.8296 87.0142 92.6626 87.0415 92.5H87Z" fill="#2F9AE2"/>
<path fill-rule="evenodd" clip-rule="evenodd" d="M78 104.5C78 102.5 80 100 81 99C82 100 84 102.5 84 104.5H83.9585C83.9858 104.663 84 104.83 84 105C84 106.657 82.6569 108 81 108C79.3431 108 78 106.657 78 105C78 104.83 78.0142 104.663 78.0415 104.5H78Z" fill="#2F9AE2"/>
<path fill-rule="evenodd" clip-rule="evenodd" d="M60 104.5C60 102.5 62 100 63 99C64 100 66 102.5 66 104.5H65.9585C65.9858 104.663 66 104.83 66 105C66 106.657 64.6569 108 63 108C61.3431 108 60 106.657 60 105C60 104.83 60.0142 104.663 60.0415 104.5H60Z" fill="#2F9AE2"/>
<path fill-rule="evenodd" clip-rule="evenodd" d="M42 104.5C42 102.5 44 100 45 99C46 100 48 102.5 48 104.5H47.9585C47.9858 104.663 48 104.83 48 105C48 106.657 46.6569 108 45 108C43.3431 108 42 106.657 42 105C42 104.83 42.0142 104.663 42.0415 104.5H42Z" fill="#2F9AE2"/>
<path fill-rule="evenodd" clip-rule="evenodd" d="M33 116.5C33 114.5 35 112 36 111C37 112 39 114.5 39 116.5H38.9585C38.9858 116.663 39 116.83 39 117C39 118.657 37.6569 120 36 120C34.3431 120 33 118.657 33 117C33 116.83 33.0142 116.663 33.0415 116.5H33Z" fill="#2F9AE2"/>
<path fill-rule="evenodd" clip-rule="evenodd" d="M51 116.5C51 114.5 53 112 54 111C55 112 57 114.5 57 116.5H56.9585C56.9858 116.663 57 116.83 57 117C57 118.657 55.6569 120 54 120C52.3431 120 51 118.657 51 117C51 116.83 51.0142 116.663 51.0415 116.5H51Z" fill="#2F9AE2"/>
<path fill-rule="evenodd" clip-rule="evenodd" d="M69 116.5C69 114.5 71 112 72 111C73 112 75 114.5 75 116.5H74.9585C74.9858 116.663 75 116.83 75 117C75 118.657 73.6569 120 72 120C70.3431 120 69 118.657 69 117C69 116.83 69.0142 116.663 69.0415 116.5H69Z" fill="#2F9AE2"/>
<path fill-rule="evenodd" clip-rule="evenodd" d="M87 116.5C87 114.5 89 112 90 111C91 112 93 114.5 93 116.5H92.9585C92.9858 116.663 93 116.83 93 117C93 118.657 91.6569 120 90 120C88.3431 120 87 118.657 87 117C87 116.83 87.0142 116.663 87.0415 116.5H87Z" fill="#2F9AE2"/>
</svg>
