<svg width="32" height="32" viewBox="0 0 32 32" fill="none" xmlns="http://www.w3.org/2000/svg">
<path fill-rule="evenodd" clip-rule="evenodd" d="M15.7412 7.08777C14.9128 7.08777 14.2412 6.41619 14.2412 5.58777V1.5C14.2412 0.671573 14.9128 3.62118e-08 15.7412 0C16.5697 -3.62118e-08 17.2412 0.671573 17.2412 1.5V5.58777C17.2412 6.41619 16.5697 7.08777 15.7412 7.08777ZM4.39526 4.39524C4.98104 3.80945 5.93079 3.80945 6.51658 4.39524L9.40706 7.28573C9.99285 7.87151 9.99285 8.82126 9.40706 9.40705C8.82128 9.99283 7.87153 9.99283 7.28574 9.40705L4.39526 6.51656C3.80947 5.93077 3.80947 4.98103 4.39526 4.39524ZM1.5 14.2413C0.671573 14.2413 0 14.9128 0 15.7413C0 16.5697 0.671573 17.2413 1.5 17.2413H5.58777C6.41619 17.2413 7.08777 16.5697 7.08777 15.7413C7.08777 14.9128 6.41619 14.2413 5.58777 14.2413H1.5ZM25.8947 14.2413C25.0663 14.2413 24.3947 14.9128 24.3947 15.7413C24.3947 16.5697 25.0663 17.2413 25.8947 17.2413H29.9825C30.8109 17.2413 31.4825 16.5697 31.4825 15.7413C31.4825 14.9128 30.8109 14.2413 29.9825 14.2413H25.8947ZM6.51658 26.7149C5.93079 27.3006 4.98104 27.3006 4.39526 26.7149C3.80947 26.1291 3.80947 25.1793 4.39526 24.5935L7.28574 21.7031C7.87153 21.1173 8.82128 21.1173 9.40706 21.7031C9.99285 22.2888 9.99285 23.2386 9.40706 23.8244L6.51658 26.7149ZM27.0768 4.65897C26.491 4.07319 25.5412 4.07319 24.9555 4.65897L22.065 7.54946C21.4792 8.13525 21.4792 9.08499 22.065 9.67078C22.6508 10.2566 23.6005 10.2566 24.1863 9.67078L27.0768 6.78029C27.6626 6.19451 27.6626 5.24476 27.0768 4.65897ZM24.9555 26.4511C25.5412 27.0369 26.491 27.0369 27.0768 26.4511C27.6626 25.8653 27.6626 24.9156 27.0768 24.3298L24.1863 21.4393C23.6005 20.8535 22.6508 20.8535 22.065 21.4393C21.4792 22.0251 21.4792 22.9749 22.065 23.5606L24.9555 26.4511ZM14.2412 25.5223C14.2412 24.6939 14.9128 24.0223 15.7412 24.0223C16.5697 24.0223 17.2412 24.6939 17.2412 25.5223V29.6101C17.2412 30.4385 16.5697 31.1101 15.7412 31.1101C14.9128 31.1101 14.2412 30.4385 14.2412 29.6101V25.5223Z" fill="#FBC22B"/>
<circle cx="15.5" cy="15.5" r="7.5" fill="#FBC22B"/>
</svg>
