<svg width="32" height="25" viewBox="0 0 32 25" fill="none" xmlns="http://www.w3.org/2000/svg">
<path fill-rule="evenodd" clip-rule="evenodd" d="M15.7412 7.08777C14.9128 7.08777 14.2412 6.4162 14.2412 5.58777V1.5C14.2412 0.671575 14.9128 2.4204e-06 15.7412 2.38419e-06C16.5697 2.34797e-06 17.2412 0.671575 17.2412 1.5V5.58777C17.2412 6.4162 16.5697 7.08777 15.7412 7.08777ZM4.39526 4.39524C4.98104 3.80946 5.93079 3.80946 6.51658 4.39524L9.40706 7.28573C9.99285 7.87152 9.99285 8.82126 9.40706 9.40705C8.82128 9.99284 7.87153 9.99284 7.28574 9.40705L4.39526 6.51656C3.80947 5.93078 3.80947 4.98103 4.39526 4.39524ZM1.5 14.2413C0.671573 14.2413 0 14.9128 0 15.7413C0 16.5697 0.671573 17.2413 1.5 17.2413H5.58777C6.41619 17.2413 7.08777 16.5697 7.08777 15.7413C7.08777 14.9128 6.41619 14.2413 5.58777 14.2413H1.5ZM25.8947 14.2413C25.0663 14.2413 24.3947 14.9128 24.3947 15.7413C24.3947 16.5697 25.0663 17.2413 25.8947 17.2413H29.9825C30.8109 17.2413 31.4825 16.5697 31.4825 15.7413C31.4825 14.9128 30.8109 14.2413 29.9825 14.2413H25.8947ZM24.9555 4.65897C25.5412 4.07319 26.491 4.07319 27.0768 4.65897C27.6626 5.24476 27.6626 6.19451 27.0768 6.7803L24.1863 9.67078C23.6005 10.2566 22.6508 10.2566 22.065 9.67078C21.4792 9.085 21.4792 8.13525 22.065 7.54946L24.9555 4.65897ZM22.8619 15.8731C22.8619 16.7227 22.1062 17.3236 21.2566 17.3236H9.96215C9.11256 17.3236 8.3569 16.7227 8.3569 15.8731C8.3569 11.8677 11.604 8.62064 15.6094 8.62064C19.6148 8.62064 22.8619 11.8677 22.8619 15.8731Z" fill="#FBC22B"/>
<path d="M1 21L12.0858 21C12.351 21 12.6054 21.1054 12.7929 21.2929L14.7929 23.2929C15.1834 23.6834 15.8166 23.6834 16.2071 23.2929L18.2071 21.2929C18.3946 21.1054 18.649 21 18.9142 21L30 21" stroke="#FBC22B" stroke-width="2" stroke-linecap="round"/>
</svg>
