<svg width="59" height="18" viewBox="0 0 59 18" fill="none" xmlns="http://www.w3.org/2000/svg">
<path d="M53.3947 16.2413H57.4825" stroke="#FBC22B" stroke-width="3" stroke-linecap="round"/>
<path d="M29 16.2413H33.0877" stroke="#FBC22B" stroke-width="3" stroke-linecap="round"/>
<path d="M32.9559 5.9559L35.8464 8.84639" stroke="#FBC22B" stroke-width="3" stroke-linecap="round"/>
<path d="M53.5161 6.21964L50.6256 9.11012" stroke="#FBC22B" stroke-width="3" stroke-linecap="round"/>
<path d="M43.2412 6.08777L43.2412 2" stroke="#FBC22B" stroke-width="3" stroke-linecap="round"/>
<path fill-rule="evenodd" clip-rule="evenodd" d="M48.7566 17.8236C49.6062 17.8236 50.3618 17.2227 50.3618 16.3731V16.3731C50.3618 12.3677 47.1148 9.12064 43.1094 9.12064C39.1039 9.12064 35.8569 12.3677 35.8569 16.3731V16.3731C35.8569 17.2227 36.6125 17.8236 37.4621 17.8236H48.7566Z" fill="#FBC22B"/>
<path d="M11.2929 17.2929L1.70711 7.7071C1.07714 7.07714 1.52331 6 2.41421 6L21.5858 6C22.4767 6 22.9229 7.07714 22.2929 7.70711L12.7071 17.2929C12.3166 17.6834 11.6834 17.6834 11.2929 17.2929Z" fill="white"/>
</svg>
