<svg width="32" height="22" viewBox="0 0 32 22" fill="none" xmlns="http://www.w3.org/2000/svg">
<path fill-rule="evenodd" clip-rule="evenodd" d="M14.2412 5.58777C14.2412 6.41619 14.9128 7.08777 15.7412 7.08777C16.5697 7.08777 17.2412 6.41619 17.2412 5.58777V1.5C17.2412 0.671573 16.5697 -3.62118e-08 15.7412 0C14.9128 3.62118e-08 14.2412 0.671573 14.2412 1.5V5.58777ZM6.51658 4.39524C5.93079 3.80945 4.98104 3.80945 4.39526 4.39524C3.80947 4.98103 3.80947 5.93077 4.39526 6.51656L7.28574 9.40705C7.87153 9.99283 8.82128 9.99283 9.40706 9.40705C9.99285 8.82126 9.99285 7.87151 9.40706 7.28573L6.51658 4.39524ZM0 15.7413C0 14.9128 0.671573 14.2413 1.5 14.2413H5.58777C6.41619 14.2413 7.08777 14.9128 7.08777 15.7413C7.08777 16.5697 6.41619 17.2413 5.58777 17.2413H1.5C0.671573 17.2413 0 16.5697 0 15.7413ZM24.3947 15.7413C24.3947 14.9128 25.0663 14.2413 25.8947 14.2413H29.9825C30.8109 14.2413 31.4825 14.9128 31.4825 15.7413C31.4825 16.5697 30.8109 17.2413 29.9825 17.2413H25.8947C25.0663 17.2413 24.3947 16.5697 24.3947 15.7413ZM27.0768 4.65897C26.491 4.07319 25.5412 4.07319 24.9555 4.65897L22.065 7.54946C21.4792 8.13525 21.4792 9.08499 22.065 9.67078C22.6508 10.2566 23.6005 10.2566 24.1863 9.67078L27.0768 6.78029C27.6626 6.19451 27.6626 5.24476 27.0768 4.65897Z" fill="#FBC22B"/>
<path d="M30.5 21H19.4142C19.149 21 18.8946 20.8946 18.7071 20.7071L16.7071 18.7071C16.3166 18.3166 15.6834 18.3166 15.2929 18.7071L13.2929 20.7071C13.1054 20.8946 12.851 21 12.5858 21H1.5" stroke="#FBC22B" stroke-width="2" stroke-linecap="round"/>
<path fill-rule="evenodd" clip-rule="evenodd" d="M22.8619 15.8731C22.8619 16.7227 22.1062 17.3236 21.2566 17.3236H18.2378L16.9142 16C16.1332 15.219 14.8668 15.219 14.0858 16L12.7622 17.3236H9.96215C9.11256 17.3236 8.3569 16.7227 8.3569 15.8731C8.3569 11.8677 11.604 8.62064 15.6094 8.62064C19.6148 8.62064 22.8619 11.8677 22.8619 15.8731Z" fill="#FBC22B"/>
</svg>
