<svg width="59" height="18" viewBox="0 0 59 18" fill="none" xmlns="http://www.w3.org/2000/svg">
<path fill-rule="evenodd" clip-rule="evenodd" d="M42.7412 7.08777C41.9128 7.08777 41.2412 6.41619 41.2412 5.58777V1.5C41.2412 0.671573 41.9128 3.62118e-08 42.7412 0C43.5697 -3.62118e-08 44.2412 0.671573 44.2412 1.5V5.58777C44.2412 6.41619 43.5697 7.08777 42.7412 7.08777ZM31.3953 4.39524C31.981 3.80945 32.9308 3.80945 33.5166 4.39524L36.4071 7.28573C36.9929 7.87151 36.9929 8.82126 36.4071 9.40705C35.8213 9.99283 34.8715 9.99283 34.2857 9.40705L31.3953 6.51656C30.8095 5.93077 30.8095 4.98103 31.3953 4.39524ZM28.5 14.2413C27.6716 14.2413 27 14.9128 27 15.7413C27 16.5697 27.6716 17.2413 28.5 17.2413H32.5878C33.4162 17.2413 34.0878 16.5697 34.0878 15.7413C34.0878 14.9128 33.4162 14.2413 32.5878 14.2413H28.5ZM52.8947 14.2413C52.0663 14.2413 51.3947 14.9128 51.3947 15.7413C51.3947 16.5697 52.0663 17.2413 52.8947 17.2413H56.9825C57.8109 17.2413 58.4825 16.5697 58.4825 15.7413C58.4825 14.9128 57.8109 14.2413 56.9825 14.2413H52.8947ZM51.9555 4.65897C52.5412 4.07319 53.491 4.07319 54.0768 4.65897C54.6626 5.24476 54.6626 6.19451 54.0768 6.78029L51.1863 9.67078C50.6005 10.2566 49.6508 10.2566 49.065 9.67078C48.4792 9.08499 48.4792 8.13525 49.065 7.54946L51.9555 4.65897ZM49.8619 15.8731C49.8619 16.7227 49.1062 17.3236 48.2566 17.3236H36.9621C36.1126 17.3236 35.3569 16.7227 35.3569 15.8731C35.3569 11.8677 38.604 8.62063 42.6094 8.62063C46.6148 8.62063 49.8619 11.8677 49.8619 15.8731Z" fill="#FBC22B"/>
<path d="M12.7071 5.70711L22.2929 15.2929C22.9229 15.9229 22.4767 17 21.5858 17H2.41421C1.52331 17 1.07714 15.9229 1.70711 15.2929L11.2929 5.70711C11.6834 5.31658 12.3166 5.31658 12.7071 5.70711Z" fill="white"/>
</svg>
