<svg width="22" height="14" viewBox="0 0 22 14" fill="none" xmlns="http://www.w3.org/2000/svg">
<path d="M0.110001 10.9C0.110001 10.64 0.200001 10.43 0.380001 10.28C0.520001 10.13 0.73 10.05 1 10.05H3.08C3.32 10.05 3.53 10.13 3.68 10.29C3.84 10.45 3.92 10.65 3.92 10.89C3.92 11.13 3.84 11.33 3.68 11.5C3.52 11.67 3.32 11.75 3.08 11.75H1C0.76 11.75 0.55 11.67 0.37 11.5C0.19 11.34 0.110001 11.14 0.110001 10.9ZM3.08 3.81C3.08 3.55 3.16 3.36 3.31 3.22C3.48 3.04 3.69 2.95 3.93 2.95C4.17 2.95 4.37 3.04 4.54 3.22L5.98 4.68C6.16 4.84 6.24 5.04 6.24 5.28C6.24 5.53 6.16 5.73 6 5.89C5.84 6.05 5.64 6.13 5.4 6.13C5.18 6.13 4.98 6.05 4.8 5.89L3.31 4.42C3.16 4.28 3.08 4.08 3.08 3.81ZM5.68 10.9C5.68 11.77 5.86 12.55 6.21 13.23C6.24 13.32 6.32 13.37 6.45 13.37H8.12C8.19 13.37 8.24 13.35 8.26 13.31C8.28 13.27 8.25 13.21 8.19 13.15C7.66 12.5 7.39 11.75 7.39 10.9C7.39 9.91 7.75 9.06 8.46 8.36C9.17 7.66 10.02 7.31 11.01 7.31C12 7.31 12.85 7.66 13.56 8.36C14.27 9.06 14.61 9.91 14.61 10.9C14.61 11.76 14.34 12.51 13.81 13.15C13.77 13.21 13.75 13.25 13.75 13.27C13.74 13.3 13.75 13.33 13.78 13.34C13.8 13.36 13.84 13.37 13.88 13.37H15.58C15.67 13.37 15.74 13.32 15.79 13.23C16.17 12.52 16.35 11.75 16.35 10.9C16.35 9.94 16.11 9.05 15.63 8.23C15.15 7.41 14.5 6.76 13.68 6.28C12.86 5.8 11.97 5.56 11.01 5.56C10.05 5.56 9.16 5.8 8.34 6.28C7.52 6.76 6.87 7.41 6.39 8.23C5.91 9.05 5.68 9.94 5.68 10.9ZM10.15 2.97V0.88C10.15 0.64 10.23 0.44 10.4 0.26C10.57 0.0800002 10.77 0 11.01 0C11.25 0 11.45 0.0900002 11.63 0.26C11.8 0.43 11.89 0.64 11.89 0.88V2.97C11.89 3.21 11.8 3.41 11.63 3.59C11.45 3.77 11.25 3.85 11.01 3.85C10.77 3.85 10.57 3.76 10.4 3.59C10.23 3.41 10.15 3.21 10.15 2.97ZM15.77 5.28C15.77 5.04 15.85 4.84 16.01 4.68L17.45 3.22C17.62 3.04 17.83 2.95 18.07 2.95C18.32 2.95 18.53 3.03 18.69 3.2C18.86 3.37 18.94 3.57 18.94 3.81C18.94 4.07 18.86 4.27 18.71 4.42L17.2 5.89C17.04 6.04 16.84 6.11 16.61 6.11C16.36 6.12 16.16 6.04 16 5.89C15.85 5.74 15.77 5.53 15.77 5.28ZM18.1 10.9C18.1 10.63 18.18 10.43 18.34 10.28C18.48 10.13 18.68 10.05 18.93 10.05H21.02C21.26 10.05 21.47 10.13 21.64 10.29C21.81 10.45 21.9 10.65 21.9 10.89C21.9 11.13 21.81 11.33 21.64 11.5C21.46 11.67 21.26 11.75 21.02 11.75H18.93C18.7 11.75 18.5 11.67 18.34 11.5C18.18 11.34 18.1 11.14 18.1 10.9Z" fill="black"/>
</svg>
