<svg width="18" height="10" viewBox="0 0 18 10" fill="none" xmlns="http://www.w3.org/2000/svg">
<path d="M0.970001 3.9C0.970001 3.64 1.05 3.43 1.2 3.27C1.37 3.09 1.58 3.01 1.85 3.01C2.08 3.01 2.28 3.1 2.45 3.27L3.95 4.77C4.13 4.95 4.22 5.16 4.22 5.4C4.22 5.63 4.13 5.84 3.95 6.02C3.8 6.2 3.6 6.29 3.35 6.29C3.1 6.29 2.88 6.2 2.71 6.02L1.21 4.52C1.05 4.37 0.970001 4.17 0.970001 3.9ZM3.9 9.49C3.86 9.65 3.91 9.72 4.05 9.72H5.54C5.61 9.72 5.68 9.66 5.76 9.55C6.06 8.91 6.5 8.41 7.09 8.03C7.68 7.65 8.33 7.47 9.05 7.47C9.78 7.47 10.44 7.66 11.04 8.03C11.64 8.4 12.09 8.91 12.39 9.55C12.47 9.66 12.55 9.72 12.62 9.72H14.1C14.23 9.72 14.28 9.64 14.25 9.49C13.91 8.36 13.26 7.44 12.3 6.73C11.34 6.02 10.26 5.67 9.05 5.67C7.85 5.67 6.77 6.02 5.82 6.73C4.89 7.44 4.24 8.36 3.9 9.49ZM8.21 3.03V0.900001C8.21 0.650001 8.29 0.44 8.45 0.26C8.61 0.0800002 8.82 0 9.06 0C9.31 0 9.52 0.0900002 9.69 0.26C9.86 0.43 9.94 0.650001 9.94 0.900001V3.04C9.94 3.3 9.86 3.51 9.69 3.68C9.52 3.85 9.31 3.93 9.06 3.93C8.82 3.93 8.61 3.84 8.45 3.67C8.29 3.5 8.21 3.28 8.21 3.03ZM13.93 5.4C13.93 5.16 14.01 4.95 14.18 4.77L15.72 3.27C15.88 3.09 16.08 3.01 16.34 3.01C16.58 3.01 16.78 3.09 16.94 3.26C17.1 3.43 17.17 3.64 17.17 3.9C17.17 4.16 17.09 4.37 16.94 4.52L15.46 6.02C15.29 6.19 15.1 6.28 14.9 6.3C14.67 6.32 14.46 6.24 14.25 6.06C14.04 5.88 13.93 5.65 13.93 5.4Z" fill="black"/>
</svg>
